<svg xmlns="http://www.w3.org/2000/svg" xmlns:xlink="http://www.w3.org/1999/xlink" viewBox="0 0 259.7 159.52"><defs><style>.cls-1{fill:#003963;}.cls-2{fill:url(#linear-gradient);}.cls-3{fill:url(#linear-gradient-2);}.cls-4{fill:url(#linear-gradient-3);}.cls-5{fill:url(#linear-gradient-4);}.cls-6{fill:url(#linear-gradient-5);}.cls-7{fill:url(#linear-gradient-6);}.cls-8{fill:#8597a3;}</style><linearGradient id="linear-gradient" x1="122.91" y1="3.77" x2="81.45" y2="89.14" gradientUnits="userSpaceOnUse"><stop offset="0" stop-color="#b3dff1"/><stop offset="0.5" stop-color="#00ade9"/><stop offset="1" stop-color="#003963"/></linearGradient><linearGradient id="linear-gradient-2" x1="156.45" y1="20.04" x2="115.01" y2="105.37" xlink:href="#linear-gradient"/><linearGradient id="linear-gradient-3" x1="109.54" y1="-2.73" x2="68.07" y2="82.66" xlink:href="#linear-gradient"/><linearGradient id="linear-gradient-4" x1="95.53" y1="-9.54" x2="54.06" y2="75.87" xlink:href="#linear-gradient"/><linearGradient id="linear-gradient-5" x1="77.09" y1="-18.5" x2="35.61" y2="66.92" xlink:href="#linear-gradient"/><linearGradient id="linear-gradient-6" x1="131.73" y1="8.04" x2="90.28" y2="93.41" xlink:href="#linear-gradient"/></defs><g id="Layer_2" data-name="Layer 2"><g id="Layer_1-2" data-name="Layer 1"><g id="SPLINE"><path class="cls-1" d="M130.06,56.6l.89.55,4.29,2.68-17.72,9.6L105.84,61.8,126.9,50.3l-.44-10L105.84,27.26,76.32,21.64l2.89-1.39,27.73,5.46,21.72,13.53L130,56Z"/></g><g id="SPLINE-2" data-name="SPLINE"><polyline class="cls-1" points="155.84 42.56 155.7 42.48 155.32 42.26 154.72 41.9 153.92 41.42 152.95 40.84 151.84 40.18 150.6 39.44 149.27 38.65 146.43 36.95 143.53 35.22 140.76 33.57 139.49 32.81 138.33 32.12 137.31 31.51 136.45 31 135.78 30.59 135.32 30.32 135.1 30.19 135.08 30.14 135.03 29.89 134.94 29.46 134.81 28.86 134.65 28.11 134.47 27.24 134.26 26.27 133.8 24.09 133.3 21.75 132.81 19.4 132.35 17.22 132.14 16.25 131.96 15.38 131.8 14.63 131.67 14.03 131.58 13.6 131.53 13.36 131.55 13.28 131.72 13.16 131.99 12.96 132.75 12.39 133.59 11.77 134.27 11.26 134.48 11.11 134.55 11.05 134.62 11.09 134.83 11.21 135.17 11.41 135.64 11.67 136.22 12.01 136.91 12.4 137.71 12.86 138.6 13.37 139.59 13.94 140.66 14.55 143.02 15.9 145.63 17.4 148.44 19.01 151.4 20.7 154.45 22.45 160.6 25.97 163.59 27.68 166.46 29.32 169.14 30.86 171.59 32.27 173.75 33.5 174.71 34.05 175.57 34.54 176.34 34.98 176.99 35.36 177.54 35.67 177.96 35.91 178.26 36.08 178.42 36.18 178.4 36.22 178.15 36.36 177.7 36.6 177.09 36.94 176.32 37.35 175.42 37.84 174.41 38.38 172.16 39.6 169.74 40.92 167.32 42.23 165.07 43.45 164.06 44 163.16 44.48 162.4 44.9 161.78 45.24 161.33 45.48 161.08 45.62 160.97 45.61 160.69 45.44 160.22 45.16 159.61 44.8 158.92 44.39 157.48 43.54 156.84 43.16 156.31 42.85 155.96 42.64 155.84 42.56"/></g><g id="SPLINE-3" data-name="SPLINE"><polyline class="cls-1" points="107.69 68.4 107.79 68.46 108.06 68.64 108.99 69.25 111.44 70.85 112.41 71.48 112.71 71.68 112.84 71.76 112.81 71.79 112.61 71.89 112.25 72.09 111.75 72.36 110.36 73.12 108.56 74.09 106.49 75.21 104.26 76.42 99.82 78.83 97.85 79.9 96.22 80.78 95.56 81.14 95.04 81.42 94.66 81.63 94.43 81.75 94.32 81.74 93.99 81.51 93.42 81.13 92.66 80.61 90.79 79.35 88.83 78.01 87.94 77.41 87.19 76.9 86.63 76.52 86.31 76.31 86.23 76.29 85.95 76.43 85.43 76.71 84.72 77.09 82.93 78.05 80.99 79.08 80.1 79.55 79.34 79.96 78.75 80.27 78.39 80.47 78.28 80.5 78.15 80.41 77.89 80.23 77.03 79.64 75.81 78.8 74.32 77.77 72.65 76.62 69.17 74.22 67.54 73.1 66.12 72.12 64.99 71.34 64.25 70.84 64.06 70.71 64.01 70.67 64.11 70.61 64.39 70.47 64.8 70.26 65.9 69.69 67.14 69.05 68.25 68.47 68.67 68.25 68.96 68.1 69.08 68.04 69.14 68.04 69.39 68.06 69.82 68.09 70.42 68.14 72.05 68.27 74.14 68.43 76.54 68.62 81.74 69.02 84.24 69.21 86.5 69.39 88.36 69.53 89.11 69.59 89.7 69.64 90.12 69.67 90.36 69.69 90.46 69.67 90.69 69.54 91.08 69.33 92.21 68.72 93.54 68 94.79 67.33 95.29 67.05 95.66 66.85 95.87 66.74 95.9 66.71 95.92 66.3 95.98 65.51 96.04 64.55 96.1 63.63 96.14 62.97 96.14 62.74 95.83 62.49 95.17 61.98 94.24 61.25 93.11 60.36 90.54 58.34 88.03 56.37 86.97 55.54 86.14 54.88 85.6 54.46 85.44 54.33 85.57 54.26 85.89 54.09 86.38 53.83 87.02 53.49 88.67 52.62 90.73 51.53 93.06 50.3 95.52 49 97.98 47.7 100.31 46.47 102.37 45.38 104.03 44.5 104.67 44.17 105.15 43.91 105.47 43.74 105.61 43.67 105.47 43.57 105 43.27 104.28 42.81 103.36 42.22 101.18 40.81 98.95 39.38 97.98 38.74 97.17 38.23 96.6 37.86 96.33 37.68 96.28 37.67 95.91 37.61 95.17 37.51 94.09 37.35 92.72 37.15 91.08 36.91 89.21 36.64 87.14 36.34 82.56 35.68 77.59 34.96 72.52 34.22 67.61 33.51 65.31 33.17 63.16 32.86 61.18 32.58 59.41 32.32 57.9 32.1 56.66 31.92 55.74 31.79 55.17 31.7 54.99 31.68 55.07 31.64 55.61 31.38 56.58 30.91 57.89 30.28 59.45 29.54 61.16 28.72 64.64 27.04 66.22 26.28 67.58 25.63 68.61 25.14 69.21 24.85 69.37 24.8 69.78 25.03 70.61 25.5 71.76 26.14 73.16 26.92 74.72 27.79 77.94 29.59 79.43 30.42 80.73 31.14 81.74 31.7 82.38 32.06 82.53 32.15 82.57 32.16 82.78 32.05 83.26 31.78 83.96 31.39 85.8 30.37 87.85 29.23 89.67 28.23 90.35 27.85 90.81 27.59 90.98 27.5 91.21 27.54 91.87 27.66 92.88 27.86 94.16 28.11 95.63 28.39 98.77 28.99 100.27 29.27 101.61 29.53 102.71 29.74 103.48 29.89 103.83 29.96 103.87 29.98 104.06 30.1 104.4 30.33 104.89 30.65 105.51 31.06 106.25 31.55 108.02 32.72 110.07 34.08 114.54 37.04 116.71 38.48 118.68 39.78 120.33 40.87 120.99 41.31 121.53 41.66 121.92 41.92 122.16 42.08 122.22 42.16 122.21 42.35 122.2 42.69 122.15 43.67 122.05 45.98 122.01 46.78 122 46.98 121.93 47.05 121.63 47.22 121.11 47.5 120.4 47.89 119.52 48.38 118.47 48.95 117.3 49.59 114.64 51.05 111.69 52.67 108.63 54.35 105.61 56 102.81 57.54 100.38 58.87 99.36 59.43 98.5 59.9 97.82 60.28 97.33 60.55 97.06 60.69 97.02 60.73 97.3 60.92 97.92 61.38 98.83 62.02 99.93 62.82 105 66.46 106.07 67.23 106.92 67.85 107.49 68.25 107.69 68.4"/></g><g id="SPLINE-4" data-name="SPLINE"><path class="cls-1" d="M65.19,65.39,60.13,68,46.42,58.55l4.77-2.38,22.15-10.9L72,40.16l-26.4-4,3.07-1.47,44.11,6.51L97,43.89l-19,10.44L88.44,63l-.54,3.68Z"/></g><g id="SPLINE-5" data-name="SPLINE"><polyline class="cls-1" points="47.67 53.52 47.55 53.58 47.22 53.74 46.72 53.99 46.1 54.3 44.72 54.98 44.06 55.31 43.48 55.6 43.02 55.82 42.75 55.96 42.65 55.95 42.42 55.8 42.02 55.52 41.46 55.13 40.77 54.66 39.96 54.1 39.05 53.47 37.02 52.07 34.83 50.56 32.64 49.05 30.61 47.66 29.7 47.03 28.89 46.47 28.19 45.99 27.63 45.6 27.23 45.33 27 45.17 26.97 45.13 27.11 45.06 27.42 44.92 27.86 44.7 28.44 44.43 29.12 44.1 29.89 43.73 30.74 43.32 32.59 42.44 36.42 40.6 38.13 39.78 38.87 39.42 39.52 39.11 40.05 38.85 40.45 38.66 40.71 38.54 40.79 38.49 40.95 38.52 41.41 38.59 42.13 38.71 43.09 38.86 44.24 39.05 45.58 39.26 47.06 39.5 48.65 39.75 52.04 40.29 55.52 40.85 58.83 41.38 60.35 41.62 61.73 41.84 62.96 42.04 63.98 42.2 64.79 42.33 65.33 42.42 65.59 42.46 65.62 42.47 65.69 42.54 66.06 42.85 66.58 43.3 67.1 43.76 67.46 44.07 67.54 44.14 67.53 44.15 67.32 44.25 66.88 44.46 66.24 44.76 65.42 45.15 64.44 45.61 63.33 46.13 62.12 46.71 59.46 47.96 56.68 49.27 53.96 50.55 52.69 51.15 51.51 51.71 50.44 52.21 49.51 52.65 48.74 53.01 48.17 53.28 47.8 53.46 47.67 53.52"/></g><g id="SPLINE-6" data-name="SPLINE"><polyline class="cls-1" points="130.86 32.81 131 32.89 131.38 33.11 131.98 33.47 132.79 33.95 133.76 34.53 134.88 35.19 137.46 36.73 143.23 40.15 146.01 41.8 148.45 43.25 149.47 43.86 150.34 44.38 151.01 44.78 151.47 45.05 151.69 45.18 151.72 45.2 151.92 45.32 152.32 45.55 152.87 45.88 154.22 46.68 155.56 47.48 156.11 47.81 156.51 48.05 156.71 48.17 156.71 48.19 156.53 48.28 156.16 48.48 155.61 48.78 154.91 49.16 154.07 49.62 152.08 50.7 149.81 51.93 145.1 54.48 143 55.62 141.29 56.55 140.64 56.9 140.14 57.17 139.83 57.34 139.72 57.4 139.61 57.33 139.3 57.14 138.28 56.51 137.02 55.73 135.88 55.02 135.47 54.77 135.22 54.62 135.15 54.57 134.86 54.39 134.57 54.21 134.54 54.19 134.54 54.18 134.53 54 134.5 53.62 134.46 53.06 134.35 51.51 134.2 49.49 134.03 47.2 133.69 42.44 133.53 40.31 133.4 38.58 133.35 37.92 133.32 37.42 133.29 37.1 133.29 36.99 133.14 36.9 132.74 36.65 132.09 36.24 131.23 35.71 130.18 35.06 128.98 34.31 126.22 32.59 120.03 28.73 117.05 26.87 114.44 25.25 113.34 24.56 112.41 23.98 111.69 23.53 111.2 23.23 110.97 23.08 110.87 23.05 110.48 22.98 109.8 22.85 108.84 22.66 107.66 22.44 106.27 22.17 104.72 21.87 101.25 21.2 97.52 20.49 93.79 19.77 90.33 19.1 88.78 18.8 87.39 18.54 86.2 18.31 85.25 18.13 84.56 17.99 84.18 17.92 84.12 17.89 84.48 17.72 85.22 17.36 86.31 16.84 87.71 16.17 89.37 15.37 91.26 14.47 93.32 13.47 97.83 11.31 102.56 9.04 107.18 6.82 109.34 5.78 111.35 4.82 113.17 3.95 114.74 3.19 116.05 2.56 117.03 2.09 117.64 1.79 117.86 1.69 117.94 1.74 118.16 1.86 118.98 2.33 120.2 3.03 121.7 3.89 125.06 5.81 126.68 6.74 128.1 7.55 129.2 8.18 129.86 8.56 129.98 8.65 129.84 8.74 129.17 9.21 128.23 9.86 127.28 10.52 126.61 10.98 126.47 11.08 126.46 11.1 126.51 11.33 126.6 11.81 126.75 12.51 126.93 13.41 127.15 14.48 127.66 17.02 128.25 19.92 129.47 25.93 130.01 28.62 130.25 29.79 130.46 30.8 130.63 31.64 130.75 32.27 130.84 32.67 130.86 32.81"/></g><g id="SPLINE-7" data-name="SPLINE"><path class="cls-2" d="M130.06,54.91l.89.55,4.29,2.68-17.72,9.6-11.68-7.63,21.06-11.5-.44-10L105.84,25.56,76.32,20l2.89-1.39L106.94,24l21.72,13.53L130,54.29Z"/></g><g id="SPLINE-8" data-name="SPLINE"><polyline class="cls-3" points="155.84 40.87 155.7 40.79 155.32 40.57 154.72 40.21 153.92 39.73 152.95 39.15 151.84 38.48 150.6 37.75 149.27 36.95 146.43 35.26 143.53 33.53 140.76 31.88 139.49 31.12 138.33 30.43 137.31 29.82 136.45 29.3 135.78 28.9 135.32 28.63 135.1 28.5 135.08 28.44 135.03 28.2 134.94 27.77 134.81 27.17 134.65 26.42 134.47 25.55 134.26 24.58 133.8 22.4 133.3 20.05 132.81 17.71 132.35 15.53 132.14 14.55 131.96 13.69 131.8 12.94 131.67 12.34 131.58 11.91 131.53 11.66 131.55 11.59 131.72 11.47 131.99 11.26 132.75 10.7 133.59 10.07 134.27 9.57 134.48 9.42 134.55 9.36 134.62 9.4 134.83 9.52 135.17 9.72 135.64 9.98 136.22 10.32 136.91 10.71 137.71 11.17 138.6 11.68 139.59 12.24 140.66 12.86 143.02 14.21 145.63 15.71 148.44 17.32 151.4 19.01 154.45 20.75 160.6 24.28 163.59 25.99 166.46 27.63 169.14 29.17 171.59 30.57 173.75 31.81 174.71 32.36 175.57 32.85 176.34 33.29 176.99 33.67 177.54 33.98 177.96 34.22 178.26 34.39 178.42 34.48 178.4 34.53 178.15 34.67 177.7 34.91 177.09 35.24 176.32 35.66 175.42 36.15 174.41 36.69 172.16 37.91 169.74 39.23 167.32 40.54 165.07 41.76 164.06 42.3 163.16 42.79 162.4 43.21 161.78 43.55 161.33 43.79 161.08 43.92 160.97 43.92 160.69 43.75 160.22 43.47 159.61 43.11 158.92 42.7 157.48 41.85 156.84 41.47 156.31 41.16 155.96 40.95 155.84 40.87"/></g><g id="SPLINE-9" data-name="SPLINE"><polyline class="cls-4" points="107.69 66.71 107.79 66.77 108.06 66.95 108.99 67.56 111.44 69.16 112.41 69.79 112.71 69.98 112.84 70.07 112.81 70.09 112.61 70.2 112.25 70.4 111.75 70.67 110.36 71.43 108.56 72.4 106.49 73.52 104.26 74.73 99.82 77.14 97.85 78.2 96.22 79.09 95.56 79.45 95.04 79.73 94.66 79.94 94.43 80.06 94.32 80.05 93.99 79.82 93.42 79.43 92.66 78.92 90.79 77.66 88.83 76.32 87.94 75.72 87.19 75.21 86.63 74.83 86.31 74.61 86.23 74.59 85.95 74.74 85.43 75.02 84.72 75.4 82.93 76.36 80.99 77.39 80.1 77.86 79.34 78.27 78.75 78.58 78.39 78.78 78.28 78.81 78.15 78.72 77.89 78.54 77.03 77.95 75.81 77.11 74.32 76.08 72.65 74.93 69.17 72.53 67.54 71.41 66.12 70.43 64.99 69.65 64.25 69.15 64.06 69.02 64.01 68.98 64.11 68.92 64.39 68.78 64.8 68.56 65.9 68 67.14 67.36 68.25 66.78 68.67 66.56 68.96 66.41 69.08 66.35 69.14 66.35 69.39 66.37 69.82 66.4 70.42 66.45 72.05 66.58 74.14 66.74 76.54 66.92 81.74 67.33 84.24 67.52 86.5 67.7 88.36 67.84 89.11 67.9 89.7 67.95 90.12 67.98 90.36 68 90.46 67.97 90.69 67.85 91.08 67.64 92.21 67.03 93.54 66.31 94.79 65.63 95.29 65.36 95.66 65.16 95.87 65.05 95.9 65.02 95.92 64.61 95.98 63.82 96.04 62.86 96.1 61.94 96.14 61.28 96.14 61.05 95.83 60.8 95.17 60.28 94.24 59.56 93.11 58.67 90.54 56.65 88.03 54.68 86.97 53.84 86.14 53.19 85.6 52.77 85.44 52.64 85.57 52.56 85.89 52.4 86.38 52.14 87.02 51.8 88.67 50.92 90.73 49.84 93.06 48.61 95.52 47.31 97.98 46.01 100.31 44.78 102.37 43.69 104.03 42.81 104.67 42.48 105.15 42.22 105.47 42.05 105.61 41.98 105.47 41.88 105 41.58 104.28 41.12 103.36 40.52 101.18 39.12 98.95 37.68 97.98 37.05 97.17 36.53 96.6 36.17 96.33 35.99 96.28 35.98 95.91 35.92 95.17 35.81 94.09 35.66 92.72 35.46 91.08 35.22 89.21 34.95 87.14 34.65 82.56 33.98 77.59 33.27 72.52 32.53 67.61 31.82 65.31 31.48 63.16 31.17 61.18 30.88 59.41 30.63 57.9 30.41 56.66 30.23 55.74 30.1 55.17 30.01 54.99 29.99 55.07 29.95 55.61 29.69 56.58 29.22 57.89 28.59 59.45 27.84 61.16 27.02 64.64 25.35 66.22 24.59 67.58 23.94 68.61 23.45 69.21 23.16 69.37 23.11 69.78 23.34 70.61 23.8 71.76 24.45 73.16 25.23 74.72 26.1 77.94 27.89 79.43 28.73 80.73 29.45 81.74 30.01 82.38 30.37 82.53 30.46 82.57 30.47 82.78 30.36 83.26 30.09 83.96 29.7 85.8 28.68 87.85 27.54 89.67 26.53 90.35 26.16 90.81 25.9 90.98 25.8 91.21 25.85 91.87 25.97 92.88 26.17 94.16 26.41 95.63 26.69 98.77 27.3 100.27 27.58 101.61 27.84 102.71 28.05 103.48 28.2 103.83 28.27 103.87 28.29 104.06 28.41 104.4 28.64 104.89 28.96 105.51 29.37 106.25 29.86 108.02 31.03 110.07 32.39 114.54 35.34 116.71 36.78 118.68 38.09 120.33 39.18 120.99 39.62 121.53 39.97 121.92 40.23 122.16 40.39 122.22 40.46 122.21 40.66 122.2 40.99 122.15 41.98 122.05 44.29 122.01 45.09 122 45.29 121.93 45.36 121.63 45.53 121.11 45.81 120.4 46.2 119.52 46.69 118.47 47.26 117.3 47.9 114.64 49.36 111.69 50.98 108.63 52.66 105.61 54.31 102.81 55.85 100.38 57.18 99.36 57.74 98.5 58.21 97.82 58.59 97.33 58.85 97.06 59 97.02 59.03 97.3 59.23 97.92 59.68 98.83 60.33 99.93 61.13 105 64.77 106.07 65.54 106.92 66.16 107.49 66.56 107.69 66.71"/></g><g id="SPLINE-10" data-name="SPLINE"><path class="cls-5" d="M65.19,63.7l-5.06,2.6L46.42,56.86l4.77-2.39L73.34,43.58,72,38.47l-26.4-4L48.64,33l44.11,6.51L97,42.19l-19,10.45,10.5,8.69L87.9,65Z"/></g><g id="SPLINE-11" data-name="SPLINE"><polyline class="cls-6" points="47.67 51.83 47.55 51.89 47.22 52.05 46.72 52.3 46.1 52.61 44.72 53.29 44.06 53.62 43.48 53.91 43.02 54.13 42.75 54.27 42.65 54.26 42.42 54.1 42.02 53.83 41.46 53.44 40.77 52.96 39.96 52.4 39.05 51.78 37.02 50.38 34.83 48.87 32.64 47.36 30.61 45.96 29.7 45.34 28.89 44.78 28.19 44.3 27.63 43.91 27.23 43.64 27 43.48 26.97 43.44 27.11 43.37 27.42 43.23 27.86 43.01 28.44 42.74 29.12 42.41 29.89 42.04 30.74 41.63 32.59 40.74 36.42 38.91 38.13 38.08 38.87 37.73 39.52 37.42 40.05 37.16 40.45 36.97 40.71 36.85 40.79 36.8 40.95 36.83 41.41 36.9 42.13 37.02 43.09 37.17 44.24 37.35 45.58 37.57 47.06 37.8 48.65 38.06 52.04 38.6 55.52 39.16 58.83 39.69 60.35 39.93 61.73 40.15 62.96 40.35 63.98 40.51 64.79 40.64 65.33 40.73 65.59 40.77 65.62 40.78 65.69 40.84 66.06 41.16 66.58 41.61 67.1 42.06 67.46 42.38 67.54 42.45 67.53 42.46 67.32 42.56 66.88 42.77 66.24 43.07 65.42 43.46 64.44 43.92 63.33 44.44 62.12 45.02 59.46 46.27 56.68 47.58 53.96 48.86 52.69 49.46 51.51 50.02 50.44 50.52 49.51 50.96 48.74 51.32 48.17 51.59 47.8 51.77 47.67 51.83"/></g><g id="SPLINE-12" data-name="SPLINE"><polyline class="cls-7" points="130.86 31.12 131 31.2 131.38 31.42 131.98 31.78 132.79 32.26 133.76 32.84 134.88 33.5 137.46 35.03 143.23 38.46 146.01 40.11 148.45 41.56 149.47 42.17 150.34 42.69 151.01 43.09 151.47 43.36 151.69 43.49 151.72 43.51 151.92 43.63 152.32 43.86 152.87 44.19 154.22 44.99 155.56 45.79 156.11 46.12 156.51 46.36 156.71 46.48 156.71 46.49 156.53 46.59 156.16 46.79 155.61 47.09 154.91 47.47 154.07 47.93 152.08 49.01 149.81 50.24 145.1 52.79 143 53.93 141.29 54.85 140.64 55.21 140.14 55.48 139.83 55.65 139.72 55.71 139.61 55.64 139.3 55.45 138.28 54.82 137.02 54.04 135.88 53.33 135.47 53.08 135.22 52.92 135.15 52.88 134.86 52.7 134.57 52.52 134.54 52.5 134.54 52.49 134.53 52.31 134.5 51.93 134.46 51.37 134.35 49.81 134.2 47.8 134.03 45.51 133.69 40.74 133.53 38.62 133.4 36.89 133.35 36.23 133.32 35.73 133.29 35.41 133.29 35.3 133.14 35.21 132.74 34.96 132.09 34.55 131.23 34.02 130.18 33.37 128.98 32.62 126.22 30.9 120.03 27.04 117.05 25.18 114.44 23.55 113.34 22.87 112.41 22.29 111.69 21.84 111.2 21.53 110.97 21.39 110.87 21.36 110.48 21.29 109.8 21.16 108.84 20.97 107.66 20.74 106.27 20.48 104.72 20.18 101.25 19.51 97.52 18.8 93.79 18.08 90.33 17.41 88.78 17.11 87.39 16.85 86.2 16.62 85.25 16.43 84.56 16.3 84.18 16.23 84.12 16.2 84.48 16.03 85.22 15.67 86.31 15.15 87.71 14.48 89.37 13.68 91.26 12.77 93.32 11.78 97.83 9.62 102.56 7.35 107.18 5.13 109.34 4.09 111.35 3.13 113.17 2.25 114.74 1.5 116.05 0.87 117.03 0.4 117.64 0.1 117.86 0 117.94 0.04 118.16 0.17 118.98 0.64 120.2 1.34 121.7 2.2 125.06 4.12 126.68 5.05 128.1 5.86 129.2 6.49 129.86 6.87 129.98 6.96 129.84 7.05 129.17 7.52 128.23 8.17 127.28 8.83 126.61 9.29 126.47 9.39 126.46 9.41 126.51 9.64 126.6 10.12 126.75 10.82 126.93 11.72 127.15 12.79 127.66 15.33 128.25 18.23 129.47 24.24 130.01 26.93 130.25 28.09 130.46 29.11 130.63 29.95 130.75 30.58 130.84 30.98 130.86 31.12"/></g><path class="cls-1" d="M183.88,87.21V139H191v-19.3l.07,0h61.62V139h7V87.21Zm68.76,26.52H191V94.27h61.69Z"/><polygon class="cls-1" points="74.71 87.2 73.37 87.2 71.72 87.2 70.23 87.2 69.69 87.2 69.37 87.2 69.3 87.28 69.3 87.67 69.3 88.34 69.3 89.29 69.3 90.46 69.3 91.83 69.3 93.36 69.3 96.78 69.3 100.47 69.3 104.15 69.3 107.58 69.3 109.11 69.3 110.48 69.3 111.65 69.3 112.59 69.3 113.27 69.3 113.65 69.25 113.73 69.02 113.73 68.59 113.73 67.98 113.73 67.19 113.73 66.25 113.73 65.14 113.73 62.52 113.73 59.4 113.73 55.87 113.73 51.99 113.73 47.86 113.73 43.54 113.73 34.67 113.73 26 113.73 21.95 113.73 18.18 113.73 14.77 113.73 11.81 113.73 9.37 113.73 8.37 113.73 7.53 113.73 6.86 113.73 6.37 113.73 6.07 113.73 5.97 113.73 5.97 113.56 5.97 113.07 5.97 112.3 5.97 111.28 5.97 110.04 5.97 108.61 5.97 105.34 5.97 97.99 5.97 94.45 5.97 91.35 5.97 90.04 5.97 88.94 5.97 88.09 5.97 87.5 5.97 87.22 5.95 87.2 5.71 87.2 5.24 87.2 4.58 87.2 2.98 87.2 1.38 87.2 0.73 87.2 0.26 87.2 0.02 87.2 0 87.24 0 87.44 0 87.79 0 88.93 0 90.6 0 92.75 0 95.3 0 98.19 0 101.36 0 108.28 0 115.53 0 122.62 0 125.94 0 129.02 0 131.81 0 134.23 0 136.23 0 137.73 0 138.68 0 138.93 0 139.01 0.15 139.01 0.58 139.01 1.97 139.01 3.7 139.01 5.26 139.01 5.83 139.01 6.17 139.01 6.24 138.96 6.24 138.69 6.24 138.21 6.24 137.54 6.24 136.71 6.24 134.66 6.24 132.24 6.24 129.63 6.24 127.02 6.24 124.59 6.24 122.54 6.24 121.72 6.24 121.05 6.24 120.57 6.24 120.3 6.28 120.24 6.52 120.24 6.95 120.24 7.56 120.24 8.34 120.24 9.29 120.24 10.39 120.24 13.02 120.24 16.13 120.24 19.67 120.24 23.54 120.24 27.68 120.24 32 120.24 40.87 120.24 49.53 120.24 53.59 120.24 57.36 120.24 60.76 120.24 63.73 120.24 66.17 120.24 67.17 120.24 68 120.24 68.67 120.24 69.17 120.24 69.47 120.24 69.57 120.24 69.57 120.36 69.57 120.7 69.57 121.24 69.57 121.95 69.57 123.81 69.57 126.09 69.57 131.21 69.57 133.68 69.57 135.84 69.57 137.52 69.57 138.12 69.57 138.53 69.57 138.72 69.59 138.73 69.81 138.73 70.27 138.73 70.89 138.73 72.42 138.73 73.94 138.73 74.56 138.73 75.02 138.73 75.24 138.73 75.26 138.7 75.26 138.5 75.26 138.16 75.26 137.02 75.26 135.35 75.26 133.22 75.26 130.68 75.26 127.81 75.26 124.65 75.26 117.78 75.26 110.56 75.26 103.51 75.26 100.21 75.26 97.14 75.26 94.37 75.26 91.96 75.26 89.97 75.26 88.48 75.26 87.53 75.26 87.29 75.26 87.2 75.11 87.2 74.71 87.2"/><path class="cls-1" d="M91.93,139H99V119.69h67.76v-6H99V94.27h68.6V87.2H91.93Z"/><path class="cls-8" d="M10.12,156.08h1.11V145.5H10.12Z"/><polygon class="cls-8" points="30.25 148.34 30.2 148.34 30.14 148.34 30.06 148.34 29.85 148.34 29.59 148.34 29.3 148.34 27.99 148.34 27.69 148.34 27.42 148.34 27.2 148.34 27.11 148.34 27.04 148.34 26.98 148.34 26.94 148.34 26.92 148.34 26.91 148.34 26.87 148.34 26.61 148.35 26.37 148.37 26.16 148.39 25.98 148.43 25.83 148.47 25.7 148.53 25.6 148.59 25.56 148.63 25.51 148.68 25.43 148.82 25.36 148.99 25.3 149.2 25.25 149.44 25.22 149.72 25.2 150.04 25.2 150.21 25.2 150.29 25.2 150.34 25.2 150.34 25.2 150.37 25.2 150.41 25.2 150.48 25.2 150.56 25.2 150.67 25.2 150.79 25.2 151.06 25.2 151.38 25.2 151.74 25.2 152.47 25.2 152.84 25.2 153.18 25.2 153.48 25.2 153.74 25.2 153.84 25.2 153.93 25.2 154 25.2 154.05 25.2 154.08 25.2 154.08 25.2 154.09 25.2 154.12 25.2 154.29 25.21 154.62 25.24 154.91 25.28 155.16 25.34 155.38 25.4 155.56 25.48 155.71 25.58 155.81 25.67 155.88 25.79 155.94 25.94 155.99 26.11 156.02 26.31 156.05 26.54 156.07 26.79 156.08 26.92 156.08 26.94 156.08 26.97 156.08 27.02 156.08 27.09 156.08 27.28 156.08 27.52 156.08 27.81 156.08 28.12 156.08 28.45 156.08 29.11 156.08 29.42 156.08 29.7 156.08 29.94 156.08 30.13 156.08 30.19 156.08 30.25 156.08 30.28 156.08 30.29 156.08 30.29 156.07 30.29 156.03 30.29 155.96 30.29 155.88 30.29 155.67 30.29 155.44 30.29 155.22 30.29 155.04 30.29 154.97 30.29 154.93 30.29 154.91 30.23 154.91 29.96 154.91 29.65 154.91 29.32 154.91 28.97 154.91 28.81 154.91 28.67 154.91 28.54 154.91 28.43 154.91 28.34 154.91 28.26 154.91 28.23 154.91 28.22 154.91 28.18 154.91 28.11 154.91 27.83 154.9 27.58 154.89 27.36 154.87 27.16 154.84 26.99 154.8 26.85 154.75 26.74 154.69 26.65 154.63 26.57 154.54 26.5 154.43 26.44 154.3 26.39 154.15 26.35 153.98 26.32 153.79 26.31 153.69 26.31 153.66 26.31 153.66 26.31 153.65 26.31 153.62 26.31 153.57 26.31 153.5 26.31 153.41 26.31 153.29 26.31 153.15 26.31 153 26.31 152.81 26.31 152.61 26.31 152.39 26.31 152.14 26.31 151.88 26.31 151.59 26.31 151.28 26.31 151.2 26.31 151.16 26.31 151.15 26.31 151.09 26.31 150.97 26.32 150.76 26.34 150.57 26.36 150.4 26.39 150.25 26.43 150.12 26.48 150.01 26.53 149.91 26.61 149.81 26.72 149.72 26.84 149.65 26.99 149.59 27.15 149.55 27.34 149.53 27.54 149.51 27.59 149.51 27.61 149.51 27.67 149.51 27.8 149.51 27.97 149.51 28.18 149.51 28.42 149.51 28.94 149.51 29.46 149.51 29.7 149.51 29.91 149.51 30.09 149.51 30.21 149.51 30.28 149.51 30.29 149.51 30.29 149.48 30.29 149.43 30.29 149.36 30.29 149.27 30.29 149.05 30.29 148.82 30.29 148.6 30.29 148.51 30.29 148.44 30.29 148.38 30.29 148.35 30.28 148.34 30.25 148.34"/><path class="cls-8" d="M34.81,145.5H33.7v8.59a9.16,9.16,0,0,0,.12,1.48l.45.42a7.42,7.42,0,0,0,1.15.09h1.1v-1.17s-.67,0-1.09,0l-.47-.31a5.64,5.64,0,0,1-.15-1.29v-3.75h1.71v-1.16H34.81Z"/><polygon class="cls-8" points="44.32 148.34 44.21 148.34 44.05 148.34 43.87 148.34 43.47 148.34 43.27 148.34 43.09 148.34 42.94 148.34 42.83 148.34 42.78 148.34 42.78 148.34 42.73 148.35 42.64 148.35 42.47 148.37 42.31 148.41 42.16 148.46 42.02 148.53 41.89 148.61 41.77 148.71 41.67 148.83 41.57 148.96 41.49 149.11 41.41 149.28 41.38 149.37 41.37 149.41 41.36 149.44 41.35 149.44 41.35 149.41 41.35 149.35 41.35 149.25 41.35 149 41.35 148.72 41.35 148.59 41.35 148.48 41.35 148.4 41.35 148.35 41.35 148.34 41.31 148.34 41.23 148.34 41.12 148.34 40.85 148.34 40.57 148.34 40.44 148.34 40.34 148.34 40.27 148.34 40.24 148.34 40.24 148.36 40.24 148.4 40.24 148.46 40.24 148.53 40.24 148.62 40.24 148.73 40.24 148.85 40.24 149.14 40.24 149.49 40.24 149.87 40.24 150.3 40.24 150.75 40.24 151.23 40.24 152.21 40.24 153.2 40.24 153.68 40.24 154.13 40.24 154.55 40.24 154.94 40.24 155.28 40.24 155.57 40.24 155.7 40.24 155.81 40.24 155.9 40.24 155.97 40.24 156.03 40.24 156.06 40.24 156.08 40.27 156.08 40.34 156.08 40.44 156.08 40.57 156.08 40.85 156.08 41.12 156.08 41.23 156.08 41.31 156.08 41.35 156.08 41.35 156.08 41.35 156.05 41.35 155.97 41.35 155.84 41.35 155.68 41.35 155.48 41.35 155.25 41.35 154.99 41.35 154.71 41.35 154.42 41.35 153.17 41.35 152.56 41.35 152.28 41.35 152.03 41.35 151.79 41.35 151.59 41.35 151.42 41.35 151.29 41.35 151.21 41.35 151.17 41.35 151.15 41.35 151.11 41.36 151.03 41.37 150.76 41.39 150.51 41.42 150.31 41.47 150.13 41.53 149.99 41.62 149.86 41.74 149.74 41.9 149.64 42.09 149.57 42.32 149.53 42.58 149.51 42.62 149.51 42.63 149.51 42.65 149.51 42.68 149.51 42.73 149.51 42.86 149.51 43.04 149.51 43.24 149.51 43.46 149.51 43.9 149.51 44.09 149.51 44.24 149.51 44.34 149.51 44.37 149.51 44.38 149.51 44.38 149.49 44.38 149.42 44.38 149.32 44.38 149.19 44.38 148.62 44.38 148.5 44.38 148.41 44.38 148.35 44.37 148.34 44.32 148.34"/><polygon class="cls-8" points="64.94 149.85 64.91 149.55 64.87 149.3 64.82 149.07 64.75 148.89 64.67 148.74 64.58 148.62 64.49 148.55 64.37 148.49 64.23 148.44 64.06 148.41 63.86 148.38 63.64 148.36 63.39 148.35 63.25 148.34 63.22 148.34 63.22 148.34 63.21 148.34 63.15 148.34 63.05 148.34 62.93 148.34 62.78 148.34 62.43 148.34 62.06 148.34 61.73 148.34 61.59 148.34 61.48 148.34 61.41 148.34 61.37 148.34 61.37 148.34 61.33 148.35 61.26 148.35 61.12 148.36 60.85 148.4 60.62 148.48 60.41 148.59 60.23 148.73 60.07 148.91 59.95 149.11 59.89 149.23 59.88 149.26 59.88 149.26 59.88 149.26 59.88 149.23 59.88 149.19 59.88 149.05 59.88 148.7 59.88 148.53 59.88 148.41 59.88 148.37 59.88 148.35 59.87 148.34 59.84 148.34 59.79 148.34 59.71 148.34 59.52 148.34 59.09 148.34 58.91 148.34 58.84 148.34 58.79 148.34 58.77 148.34 58.76 148.35 58.76 148.38 58.76 148.46 58.76 148.59 58.76 148.75 58.76 148.95 58.76 149.19 58.76 149.45 58.76 149.75 58.76 150.06 58.76 150.4 58.76 150.75 58.76 151.49 58.76 153.02 58.76 153.76 58.76 154.11 58.76 154.44 58.76 154.75 58.76 155.04 58.76 155.3 58.76 155.53 58.76 155.72 58.76 155.87 58.76 155.99 58.76 156.06 58.76 156.08 58.77 156.08 58.8 156.08 58.85 156.08 58.92 156.08 59.1 156.08 59.32 156.08 59.54 156.08 59.72 156.08 59.79 156.08 59.85 156.08 59.87 156.08 59.88 156.08 59.88 156.07 59.88 156.03 59.88 155.96 59.88 155.86 59.88 155.74 59.88 155.6 59.88 155.45 59.88 155.09 59.88 154.67 59.88 154.22 59.88 153.29 59.88 152.84 59.88 152.43 59.88 152.06 59.88 151.9 59.88 151.75 59.88 151.63 59.88 151.53 59.88 151.46 59.88 151.41 59.88 151.39 59.88 151.36 59.88 151.33 59.88 151.2 59.89 150.95 59.91 150.72 59.94 150.52 59.98 150.34 60.02 150.19 60.08 150.06 60.14 149.95 60.22 149.85 60.3 149.77 60.4 149.7 60.52 149.64 60.64 149.59 60.78 149.55 60.93 149.52 60.97 149.52 60.99 149.51 61.01 149.51 61.08 149.51 61.21 149.51 61.38 149.51 61.61 149.51 61.9 149.51 62.23 149.51 62.41 149.51 62.51 149.51 62.56 149.51 62.59 149.51 62.79 149.53 62.98 149.55 63.14 149.59 63.29 149.65 63.41 149.72 63.52 149.81 63.61 149.92 63.67 150.02 63.71 150.13 63.75 150.25 63.78 150.4 63.81 150.57 63.82 150.75 63.83 150.96 63.84 151.17 63.84 151.19 63.84 151.25 63.84 151.33 63.84 151.43 63.84 151.56 63.84 151.71 63.84 151.88 63.84 152.07 63.84 152.49 63.84 152.94 63.84 153.91 63.84 154.39 63.84 154.84 63.84 155.25 63.84 155.43 63.84 155.59 63.84 155.74 63.84 155.86 63.84 155.96 63.84 156.03 63.84 156.07 63.84 156.08 63.85 156.08 63.89 156.08 63.96 156.08 64.13 156.08 64.34 156.08 64.56 156.08 64.76 156.08 64.84 156.08 64.9 156.08 64.94 156.08 64.95 156.08 64.95 156.06 64.95 156.01 64.95 155.92 64.95 155.8 64.95 155.66 64.95 155.49 64.95 155.29 64.95 155.08 64.95 154.6 64.95 154.07 64.95 152.94 64.95 152.38 64.95 151.85 64.95 151.37 64.95 151.15 64.95 150.96 64.95 150.78 64.95 150.63 64.95 150.51 64.95 150.42 64.95 150.37 64.95 150.34 64.95 150.18 64.94 149.85"/><path class="cls-8" d="M69.1,146.55h1.12v-1.08H69.1Z"/><path class="cls-8" d="M69.1,156.08h1.12v-7.73H69.1Z"/><polygon class="cls-8" points="79.21 148.34 79.16 148.34 79.1 148.34 79.02 148.34 78.81 148.34 78.55 148.34 78.26 148.34 76.95 148.34 76.65 148.34 76.38 148.34 76.16 148.34 76.07 148.34 76 148.34 75.94 148.34 75.9 148.34 75.88 148.34 75.87 148.34 75.83 148.34 75.57 148.35 75.33 148.37 75.13 148.39 74.94 148.43 74.79 148.47 74.66 148.53 74.56 148.59 74.52 148.63 74.47 148.68 74.39 148.82 74.31 148.99 74.26 149.2 74.21 149.44 74.18 149.72 74.16 150.04 74.16 150.21 74.16 150.29 74.16 150.34 74.16 150.34 74.16 150.37 74.16 150.41 74.16 150.48 74.16 150.56 74.16 150.67 74.16 150.79 74.16 151.06 74.16 151.38 74.16 151.74 74.16 152.47 74.16 152.84 74.16 153.18 74.16 153.48 74.16 153.74 74.16 153.84 74.16 153.93 74.16 154 74.16 154.05 74.16 154.08 74.16 154.08 74.16 154.09 74.16 154.12 74.16 154.29 74.17 154.62 74.2 154.91 74.24 155.16 74.3 155.38 74.36 155.56 74.44 155.71 74.54 155.81 74.63 155.88 74.75 155.94 74.89 155.99 75.07 156.02 75.27 156.05 75.5 156.07 75.75 156.08 75.88 156.08 75.9 156.08 75.93 156.08 75.98 156.08 76.05 156.08 76.24 156.08 76.48 156.08 76.77 156.08 77.08 156.08 77.41 156.08 78.07 156.08 78.38 156.08 78.66 156.08 78.9 156.08 79.08 156.08 79.15 156.08 79.2 156.08 79.24 156.08 79.25 156.08 79.25 156.07 79.25 156.03 79.25 155.96 79.25 155.88 79.25 155.67 79.25 155.44 79.25 155.22 79.25 155.04 79.25 154.97 79.25 154.93 79.25 154.91 79.19 154.91 78.92 154.91 78.61 154.91 78.28 154.91 77.93 154.91 77.77 154.91 77.63 154.91 77.5 154.91 77.39 154.91 77.3 154.91 77.22 154.91 77.19 154.91 77.18 154.91 77.14 154.91 77.06 154.91 76.79 154.9 76.54 154.89 76.31 154.87 76.12 154.84 75.95 154.8 75.81 154.75 75.7 154.69 75.61 154.63 75.53 154.54 75.45 154.43 75.4 154.3 75.35 154.15 75.31 153.98 75.28 153.79 75.27 153.69 75.27 153.66 75.27 153.66 75.27 153.65 75.27 153.62 75.27 153.57 75.27 153.5 75.27 153.41 75.27 153.29 75.27 153.15 75.27 153 75.27 152.81 75.27 152.61 75.27 152.39 75.27 152.14 75.27 151.88 75.27 151.59 75.27 151.28 75.27 151.2 75.27 151.16 75.27 151.15 75.27 151.09 75.27 150.97 75.28 150.76 75.3 150.57 75.32 150.4 75.35 150.25 75.39 150.12 75.43 150.01 75.49 149.91 75.57 149.81 75.68 149.72 75.8 149.65 75.95 149.59 76.11 149.55 76.3 149.53 76.5 149.51 76.55 149.51 76.56 149.51 76.63 149.51 76.76 149.51 76.93 149.51 77.14 149.51 77.38 149.51 77.9 149.51 78.42 149.51 78.66 149.51 78.87 149.51 79.04 149.51 79.17 149.51 79.24 149.51 79.25 149.51 79.25 149.48 79.25 149.43 79.25 149.36 79.25 149.27 79.25 149.05 79.25 148.82 79.25 148.6 79.25 148.51 79.25 148.44 79.25 148.38 79.25 148.35 79.24 148.34 79.21 148.34"/><path class="cls-8" d="M116.32,145.5H115.2v8.59a8.47,8.47,0,0,0,.13,1.48l.44.42a7.52,7.52,0,0,0,1.16.09H118v-1.17s-.68,0-1.1,0l-.46-.31a5.64,5.64,0,0,1-.15-1.29v-3.75H118v-1.16h-1.71Z"/><path class="cls-8" d="M127.08,148.44a7.52,7.52,0,0,0-1.16-.09H123.4a4.3,4.3,0,0,0-1.15.16c-.26.33-.26.33-.47.63a6.77,6.77,0,0,0-.11,1.2v3.75a9.42,9.42,0,0,0,.12,1.5l.44.4a7.62,7.62,0,0,0,1.17.09h4v-1.17h-3.29a1.19,1.19,0,0,1-1.1-.43,1.92,1.92,0,0,1-.19-.62V152.8h4.87v-2.46a8.47,8.47,0,0,0-.13-1.48C127.29,148.63,127.29,148.63,127.08,148.44Zm-.49,3.2h-3.81v-.59l0-.17v-.4l0-.1,0-.1,0-.07v-.08L123,150l.07-.09.07-.1.1-.08.1-.06.12-.06.13-.05.13,0,.15,0h1.92l.09,0,.08,0,.08,0,.07,0,.07,0,.06.05.06.06,0,.06.05.07,0,.07,0,.07,0,.1,0,.08,0,.09v.11l0,.1v1.08Z"/><path class="cls-8" d="M131.33,156.08h1.12V145.5h-1.12Z"/><path class="cls-8" d="M141.91,148.44a7.59,7.59,0,0,0-1.16-.09h-2.53a4.24,4.24,0,0,0-1.14.16c-.26.33-.26.33-.47.63a6.77,6.77,0,0,0-.11,1.2v3.75a9.42,9.42,0,0,0,.12,1.5l.44.4a7.45,7.45,0,0,0,1.16.09h4v-1.17H138.9a1.19,1.19,0,0,1-1.1-.43,1.92,1.92,0,0,1-.19-.62V152.8h4.87v-2.46a8.47,8.47,0,0,0-.13-1.48Zm-.49,3.2h-3.81v-.9l0-.14v-.12l0-.1v-.1l0-.07v-.08l.06-.12.07-.09.07-.1.1-.08.1-.06.12-.06.13-.05.13,0,.15,0h1.92l.09,0,.08,0,.08,0,.07,0,.07,0,.06.05.06.06.05.06.09.14,0,.07,0,.1,0,.08,0,.09v.21l0,.12v1Z"/><polygon class="cls-8" points="151.47 148.34 151.42 148.34 151.35 148.34 151.27 148.34 151.06 148.34 150.8 148.34 150.51 148.34 149.2 148.34 148.9 148.34 148.63 148.34 148.41 148.34 148.32 148.34 148.25 148.34 148.19 148.34 148.16 148.34 148.14 148.34 148.12 148.34 148.09 148.34 147.82 148.35 147.59 148.37 147.38 148.39 147.2 148.43 147.04 148.47 146.92 148.53 146.82 148.59 146.77 148.63 146.73 148.68 146.64 148.82 146.57 148.99 146.51 149.2 146.47 149.44 146.43 149.72 146.41 150.04 146.41 150.21 146.41 150.29 146.41 150.34 146.41 150.34 146.41 150.37 146.41 150.41 146.41 150.48 146.41 150.56 146.41 150.67 146.41 150.79 146.41 151.06 146.41 151.38 146.41 151.74 146.41 152.47 146.41 152.84 146.41 153.18 146.41 153.48 146.41 153.74 146.41 153.84 146.41 153.93 146.41 154 146.41 154.05 146.41 154.08 146.41 154.08 146.41 154.09 146.41 154.12 146.41 154.29 146.43 154.62 146.46 154.91 146.5 155.16 146.55 155.38 146.62 155.56 146.7 155.71 146.79 155.81 146.88 155.88 147 155.94 147.15 155.99 147.32 156.02 147.52 156.05 147.75 156.07 148.01 156.08 148.14 156.08 148.15 156.08 148.19 156.08 148.24 156.08 148.31 156.08 148.5 156.08 148.74 156.08 149.02 156.08 149.33 156.08 149.66 156.08 150.32 156.08 150.63 156.08 150.92 156.08 151.15 156.08 151.34 156.08 151.41 156.08 151.46 156.08 151.49 156.08 151.5 156.08 151.5 156.07 151.5 156.03 151.5 155.96 151.5 155.88 151.5 155.67 151.5 155.44 151.5 155.22 151.5 155.04 151.5 154.97 151.5 154.93 151.5 154.91 151.44 154.91 151.17 154.91 150.87 154.91 150.53 154.91 150.18 154.91 150.02 154.91 149.88 154.91 149.75 154.91 149.65 154.91 149.55 154.91 149.48 154.91 149.45 154.91 149.43 154.91 149.39 154.91 149.32 154.91 149.04 154.9 148.79 154.89 148.57 154.87 148.37 154.84 148.21 154.8 148.07 154.75 147.95 154.69 147.86 154.63 147.78 154.54 147.71 154.43 147.65 154.3 147.6 154.15 147.56 153.98 147.54 153.79 147.53 153.69 147.53 153.66 147.53 153.66 147.53 153.65 147.53 153.62 147.53 153.57 147.53 153.5 147.53 153.41 147.53 153.29 147.53 153.15 147.53 153 147.53 152.81 147.53 152.61 147.53 152.39 147.53 152.14 147.53 151.88 147.53 151.59 147.53 151.28 147.53 151.2 147.53 151.16 147.53 151.15 147.53 151.09 147.53 150.97 147.54 150.76 147.55 150.57 147.58 150.4 147.61 150.25 147.64 150.12 147.69 150.01 147.75 149.91 147.83 149.81 147.93 149.72 148.06 149.65 148.2 149.59 148.37 149.55 148.55 149.53 148.76 149.51 148.81 149.51 148.82 149.51 148.89 149.51 149.01 149.51 149.18 149.51 149.39 149.51 149.63 149.51 150.16 149.51 150.68 149.51 150.92 149.51 151.13 149.51 151.3 149.51 151.42 149.51 151.49 149.51 151.5 149.51 151.5 149.48 151.5 149.43 151.5 149.36 151.5 149.27 151.5 149.05 151.5 148.82 151.5 148.6 151.5 148.51 151.5 148.44 151.5 148.38 151.5 148.35 151.49 148.34 151.47 148.34"/><path class="cls-8" d="M161,149.57l0-.18,0-.17,0-.15,0-.14-.05-.11,0-.11-.13-.13-.16-.08-.21-.07-.26-.05-.32,0h-3.36l-.33,0-.28,0-.22.07-.18.07-.06,0-.07.07-.06.08-.06.11,0,.12-.05.15,0,.15,0,.18,0,.2,0,.21v4.76l0,.21,0,.19,0,.17,0,.15,0,.14.06.12.06.09.05.09.06.05.17.09.2.07.26.05.32,0h3.36l.34,0,.27-.05.22-.06.18-.07.07,0,.06-.07.06-.08.06-.11,0-.11.05-.15,0-.16,0-.18,0-.19v-5ZM160,153.25v.32l0,.28,0,.24-.05.19-.06.16,0,.06-.05.08-.07.06-.07.07-.1,0-.09.05-.11,0-.11,0-.12,0-.29,0H157l-.22,0-.2-.06-.15-.08-.13-.1-.06-.06,0-.07,0-.08,0-.1,0-.11,0-.12V154l0-.14v-3l0-.27,0-.24.05-.2.07-.15,0-.07.06-.07.07-.08.07-.05.1-.05.09,0,.11,0,.12,0,.11,0,.29,0H159l.22,0,.2.06.17.07.11.11.06.06.05.07,0,.08,0,.09,0,.11,0,.12,0,.13,0,.15,0,.15v2.49Z"/><polygon class="cls-8" points="176.34 149.73 176.32 149.49 176.28 149.28 176.24 149.09 176.18 148.92 176.12 148.78 176.04 148.67 175.97 148.59 175.78 148.49 175.52 148.41 175.18 148.37 174.75 148.35 174.64 148.34 174.62 148.34 174.57 148.34 174.5 148.34 174.27 148.34 173.99 148.34 173.37 148.34 173.1 148.34 172.9 148.34 172.83 148.34 172.79 148.34 172.79 148.34 172.74 148.35 172.63 148.35 172.42 148.39 172.22 148.46 172.04 148.55 171.86 148.68 171.71 148.84 171.56 149.03 171.43 149.25 171.31 149.5 171.29 149.53 171.29 149.51 171.28 149.47 171.25 149.4 171.19 149.25 171.08 148.99 170.96 148.78 170.84 148.63 170.71 148.52 170.53 148.44 170.31 148.39 170.04 148.35 169.89 148.35 169.81 148.34 169.77 148.34 169.76 148.34 169.73 148.34 169.66 148.34 169.56 148.34 169.44 148.34 169.15 148.34 168.81 148.34 168.47 148.34 168.15 148.34 167.9 148.34 167.8 148.34 167.74 148.34 167.68 148.35 167.58 148.35 167.38 148.39 167.18 148.47 166.99 148.57 166.79 148.72 166.61 148.87 166.46 149.04 166.33 149.21 166.23 149.4 166.22 149.42 166.22 149.42 166.22 149.4 166.22 149.32 166.22 149.18 166.22 149.01 166.22 148.65 166.22 148.5 166.22 148.39 166.22 148.35 166.19 148.34 166.09 148.34 165.94 148.34 165.57 148.34 165.39 148.34 165.24 148.34 165.14 148.34 165.1 148.35 165.1 148.38 165.1 148.44 165.1 148.53 165.1 148.66 165.1 148.81 165.1 148.99 165.1 149.42 165.1 149.93 165.1 150.5 165.1 151.12 165.1 151.76 165.1 153.07 165.1 153.7 165.1 154.29 165.1 154.82 165.1 155.28 165.1 155.48 165.1 155.65 165.1 155.8 165.1 155.92 165.1 156.01 165.1 156.06 165.11 156.08 165.16 156.08 165.28 156.08 165.45 156.08 165.82 156.08 165.99 156.08 166.13 156.08 166.21 156.08 166.22 156.08 166.22 156.05 166.22 155.93 166.22 155.74 166.22 155.49 166.22 155.18 166.22 154.83 166.22 154.45 166.22 153.63 166.22 152.81 166.22 152.42 166.22 152.07 166.22 151.76 166.22 151.51 166.22 151.32 166.22 151.2 166.22 151.15 166.22 151.05 166.23 150.87 166.25 150.53 166.3 150.26 166.37 150.05 166.47 149.88 166.64 149.72 166.87 149.61 167.15 149.54 167.49 149.51 167.54 149.51 167.67 149.51 167.86 149.51 168.09 149.51 168.56 149.51 168.75 149.51 168.88 149.51 168.95 149.51 169.21 149.53 169.45 149.58 169.65 149.66 169.82 149.76 169.95 149.9 170.06 150.06 170.13 150.26 170.17 150.49 170.18 150.61 170.18 150.67 170.18 150.68 170.18 150.72 170.18 150.78 170.18 150.97 170.18 151.24 170.18 151.56 170.18 151.94 170.18 152.35 170.18 153.25 170.18 154.16 170.18 154.59 170.18 154.99 170.18 155.34 170.18 155.64 170.18 155.87 170.18 156.02 170.18 156.06 170.18 156.08 170.19 156.08 170.26 156.08 170.39 156.08 170.56 156.08 170.93 156.08 171.09 156.08 171.22 156.08 171.29 156.08 171.29 156.08 171.29 156.01 171.29 155.86 171.29 155.65 171.29 155.37 171.29 155.04 171.29 154.67 171.29 154.28 171.29 153.45 171.29 152.64 171.29 152.27 171.29 151.94 171.29 151.65 171.29 151.42 171.29 151.26 171.29 151.18 171.29 151.16 171.29 151.11 171.3 151.01 171.3 150.83 171.33 150.5 171.38 150.24 171.45 150.03 171.49 149.95 171.56 149.86 171.73 149.71 171.97 149.6 172.25 149.53 172.42 149.52 172.51 149.51 172.55 149.51 172.57 149.51 172.59 149.51 172.63 149.51 172.78 149.51 172.98 149.51 173.21 149.51 173.66 149.51 173.84 149.51 173.95 149.51 173.97 149.51 173.99 149.51 174.03 149.51 174.21 149.52 174.51 149.57 174.76 149.67 174.95 149.81 175.07 149.98 175.15 150.17 175.2 150.42 175.24 150.73 175.25 151.1 175.25 151.15 175.25 151.17 175.25 151.25 175.25 151.4 175.25 151.62 175.25 151.91 175.25 152.24 175.25 152.6 175.25 153 175.25 153.83 175.25 154.63 175.25 155 175.25 155.34 175.25 155.62 175.25 155.84 175.25 156 175.25 156.07 175.28 156.08 175.38 156.08 175.52 156.08 175.89 156.08 176.07 156.08 176.22 156.08 176.33 156.08 176.37 156.08 176.37 156.07 176.37 156.03 176.37 155.96 176.37 155.88 176.37 155.64 176.37 155.33 176.37 154.96 176.37 154.54 176.37 154.09 176.37 153.61 176.37 152.64 176.37 152.17 176.37 151.73 176.37 151.33 176.37 150.98 176.37 150.69 176.37 150.48 176.37 150.41 176.37 150.37 176.37 150.34 176.37 150.33 176.37 150.29 176.36 150 176.34 149.73"/><polygon class="cls-8" points="186.52 148.34 186.46 148.34 186.29 148.34 185.86 148.34 185.66 148.34 185.58 148.34 185.52 148.34 185.47 148.34 185.46 148.34 185.46 148.35 185.46 148.39 185.46 148.46 185.46 148.56 185.46 148.68 185.46 148.82 185.46 148.98 185.46 149.16 185.46 149.56 185.46 150.01 185.46 150.97 185.46 151.46 185.46 151.91 185.46 152.33 185.46 152.52 185.46 152.69 185.46 152.85 185.46 152.98 185.46 153.09 185.46 153.17 185.46 153.23 185.46 153.25 185.46 153.26 185.46 153.29 185.46 153.35 185.45 153.57 185.44 153.77 185.42 153.95 185.39 154.11 185.35 154.25 185.31 154.37 185.27 154.47 185.19 154.57 185.1 154.67 184.98 154.75 184.85 154.81 184.69 154.86 184.51 154.89 184.32 154.91 184.21 154.91 184.19 154.91 184.18 154.91 184.17 154.91 184.13 154.91 184.06 154.91 183.97 154.91 183.85 154.91 183.59 154.91 183.32 154.91 183.06 154.91 182.96 154.91 182.87 154.91 182.81 154.91 182.78 154.91 182.78 154.91 182.76 154.91 182.71 154.91 182.6 154.91 182.41 154.89 182.24 154.85 182.08 154.8 181.95 154.73 181.83 154.65 181.74 154.56 181.69 154.5 181.67 154.46 181.62 154.36 181.59 154.24 181.56 154.09 181.53 153.93 181.51 153.75 181.5 153.54 181.5 153.31 181.5 153.26 181.5 153.24 181.5 153.19 181.5 153.12 181.5 153.01 181.5 152.89 181.5 152.74 181.5 152.57 181.5 152.19 181.5 151.76 181.5 151.29 181.5 150.8 181.5 150.31 181.5 149.84 181.5 149.41 181.5 149.03 181.5 148.86 181.5 148.71 181.5 148.59 181.5 148.49 181.5 148.41 181.5 148.36 181.5 148.34 181.5 148.34 181.47 148.34 181.42 148.34 181.35 148.34 181.26 148.34 181.06 148.34 180.84 148.34 180.63 148.34 180.47 148.34 180.42 148.34 180.39 148.34 180.38 148.34 180.38 148.36 180.38 148.41 180.38 148.49 180.38 148.6 180.38 148.74 180.38 148.91 180.38 149.09 180.38 149.31 180.38 149.53 180.38 150.04 180.38 150.58 180.38 151.15 180.38 151.72 180.38 152.27 180.38 152.78 180.38 153.02 180.38 153.24 180.38 153.44 180.38 153.61 180.38 153.77 180.38 153.89 180.38 153.99 180.38 154.05 180.38 154.08 180.38 154.08 180.38 154.1 180.38 154.15 180.39 154.49 180.42 154.79 180.45 155.06 180.5 155.29 180.56 155.49 180.64 155.65 180.73 155.78 180.82 155.86 180.93 155.92 181.06 155.97 181.22 156.01 181.41 156.04 181.63 156.06 181.87 156.08 182.01 156.08 182.07 156.08 182.11 156.08 182.11 156.08 182.15 156.08 182.22 156.08 182.33 156.08 182.47 156.08 182.8 156.08 183.17 156.08 183.52 156.08 183.67 156.08 183.79 156.08 183.89 156.08 183.95 156.08 183.96 156.08 183.96 156.08 183.97 156.08 184 156.08 184.16 156.07 184.32 156.05 184.47 156.02 184.61 155.98 184.73 155.92 184.85 155.85 184.96 155.78 185.06 155.68 185.14 155.58 185.22 155.47 185.29 155.34 185.35 155.2 185.4 155.05 185.43 154.88 185.45 154.8 185.45 154.75 185.46 154.73 185.46 154.73 185.46 154.75 185.46 154.8 185.46 154.88 185.46 154.98 185.46 155.22 185.46 155.74 185.46 155.85 185.46 155.95 185.46 156.02 185.46 156.07 185.46 156.08 185.47 156.08 185.51 156.08 185.58 156.08 185.75 156.08 185.96 156.08 186.18 156.08 186.38 156.08 186.46 156.08 186.52 156.08 186.56 156.08 186.57 156.08 186.57 156.06 186.57 155.98 186.57 155.87 186.57 155.71 186.57 155.51 186.57 155.28 186.57 155.02 186.57 154.73 186.57 154.42 186.57 154.09 186.57 153.38 186.57 151.85 186.57 151.09 186.57 150.38 186.57 150.04 186.57 149.73 186.57 149.44 186.57 149.17 186.57 148.94 186.57 148.74 186.57 148.58 186.57 148.46 186.57 148.38 186.57 148.35 186.56 148.34 186.52 148.34"/><polygon class="cls-8" points="196.79 149.85 196.77 149.55 196.73 149.3 196.67 149.07 196.61 148.89 196.53 148.74 196.44 148.62 196.34 148.55 196.23 148.49 196.09 148.44 195.92 148.41 195.72 148.38 195.49 148.36 195.24 148.35 195.1 148.34 195.08 148.34 195.08 148.34 195.06 148.34 195 148.34 194.91 148.34 194.78 148.34 194.63 148.34 194.28 148.34 193.92 148.34 193.58 148.34 193.45 148.34 193.34 148.34 193.26 148.34 193.23 148.34 193.22 148.34 193.19 148.35 193.11 148.35 192.97 148.36 192.71 148.4 192.47 148.48 192.26 148.59 192.08 148.73 191.93 148.91 191.8 149.11 191.75 149.23 191.74 149.26 191.73 149.26 191.73 149.26 191.73 149.23 191.73 149.19 191.73 149.05 191.73 148.7 191.73 148.53 191.73 148.41 191.73 148.37 191.73 148.35 191.73 148.34 191.7 148.34 191.64 148.34 191.57 148.34 191.38 148.34 190.95 148.34 190.76 148.34 190.69 148.34 190.65 148.34 190.62 148.34 190.62 148.35 190.62 148.38 190.62 148.46 190.62 148.59 190.62 148.75 190.62 148.95 190.62 149.19 190.62 149.45 190.62 149.75 190.62 150.06 190.62 150.4 190.62 150.75 190.62 151.49 190.62 153.02 190.62 153.76 190.62 154.11 190.62 154.44 190.62 154.75 190.62 155.04 190.62 155.3 190.62 155.53 190.62 155.72 190.62 155.87 190.62 155.99 190.62 156.06 190.62 156.08 190.62 156.08 190.65 156.08 190.7 156.08 190.77 156.08 190.96 156.08 191.18 156.08 191.39 156.08 191.58 156.08 191.65 156.08 191.7 156.08 191.73 156.08 191.73 156.08 191.73 156.07 191.73 156.03 191.73 155.96 191.73 155.86 191.73 155.74 191.73 155.6 191.73 155.45 191.73 155.09 191.73 154.67 191.73 154.22 191.73 153.29 191.73 152.84 191.73 152.43 191.73 152.06 191.73 151.9 191.73 151.75 191.73 151.63 191.73 151.53 191.73 151.46 191.73 151.41 191.73 151.39 191.73 151.36 191.73 151.33 191.74 151.2 191.75 150.95 191.77 150.72 191.79 150.52 191.83 150.34 191.88 150.19 191.93 150.06 192 149.95 192.07 149.85 192.16 149.77 192.26 149.7 192.37 149.64 192.5 149.59 192.64 149.55 192.79 149.52 192.83 149.52 192.85 149.51 192.86 149.51 192.94 149.51 193.06 149.51 193.24 149.51 193.47 149.51 193.75 149.51 194.08 149.51 194.27 149.51 194.37 149.51 194.42 149.51 194.44 149.51 194.65 149.53 194.83 149.55 195 149.59 195.14 149.65 195.27 149.72 195.38 149.81 195.46 149.92 195.52 150.02 195.57 150.13 195.61 150.25 195.64 150.4 195.66 150.57 195.68 150.75 195.69 150.96 195.69 151.17 195.69 151.19 195.69 151.25 195.69 151.33 195.69 151.43 195.69 151.56 195.69 151.71 195.69 151.88 195.69 152.07 195.69 152.49 195.69 152.94 195.69 153.91 195.69 154.39 195.69 154.84 195.69 155.25 195.69 155.43 195.69 155.59 195.69 155.74 195.69 155.86 195.69 155.96 195.69 156.03 195.69 156.07 195.69 156.08 195.71 156.08 195.75 156.08 195.81 156.08 195.99 156.08 196.2 156.08 196.42 156.08 196.61 156.08 196.69 156.08 196.75 156.08 196.79 156.08 196.81 156.08 196.81 156.06 196.81 156.01 196.81 155.92 196.81 155.8 196.81 155.66 196.81 155.49 196.81 155.29 196.81 155.08 196.81 154.6 196.81 154.07 196.81 152.94 196.81 152.38 196.81 151.85 196.81 151.37 196.81 151.15 196.81 150.96 196.81 150.78 196.81 150.63 196.81 150.51 196.81 150.42 196.81 150.37 196.81 150.34 196.81 150.18 196.79 149.85"/><path class="cls-8" d="M201,146.55h1.12v-1.08H201Z"/><path class="cls-8" d="M201,156.08h1.12v-7.73H201Z"/><polygon class="cls-8" points="211.07 148.34 211.02 148.34 210.95 148.34 210.87 148.34 210.66 148.34 210.41 148.34 210.11 148.34 208.8 148.34 208.5 148.34 208.23 148.34 208.01 148.34 207.92 148.34 207.85 148.34 207.79 148.34 207.76 148.34 207.74 148.34 207.72 148.34 207.69 148.34 207.43 148.35 207.19 148.37 206.98 148.39 206.8 148.43 206.64 148.47 206.52 148.53 206.42 148.59 206.37 148.63 206.33 148.68 206.24 148.82 206.17 148.99 206.11 149.2 206.07 149.44 206.03 149.72 206.02 150.04 206.01 150.21 206.01 150.29 206.01 150.34 206.01 150.34 206.01 150.37 206.01 150.41 206.01 150.48 206.01 150.56 206.01 150.67 206.01 150.79 206.01 151.06 206.01 151.38 206.01 151.74 206.01 152.47 206.01 152.84 206.01 153.18 206.01 153.48 206.01 153.74 206.01 153.84 206.01 153.93 206.01 154 206.01 154.05 206.01 154.08 206.01 154.08 206.01 154.09 206.01 154.12 206.01 154.29 206.03 154.62 206.06 154.91 206.1 155.16 206.15 155.38 206.22 155.56 206.3 155.71 206.39 155.81 206.49 155.88 206.6 155.94 206.75 155.99 206.92 156.02 207.13 156.05 207.35 156.07 207.61 156.08 207.74 156.08 207.75 156.08 207.79 156.08 207.84 156.08 207.91 156.08 208.1 156.08 208.34 156.08 208.62 156.08 208.93 156.08 209.26 156.08 209.93 156.08 210.24 156.08 210.52 156.08 210.75 156.08 210.94 156.08 211.01 156.08 211.06 156.08 211.09 156.08 211.1 156.08 211.1 156.07 211.1 156.03 211.1 155.96 211.1 155.88 211.1 155.67 211.1 155.44 211.1 155.22 211.1 155.04 211.1 154.97 211.1 154.93 211.1 154.91 211.04 154.91 210.77 154.91 210.47 154.91 210.13 154.91 209.78 154.91 209.62 154.91 209.48 154.91 209.35 154.91 209.25 154.91 209.15 154.91 209.08 154.91 209.05 154.91 209.03 154.91 208.99 154.91 208.92 154.91 208.64 154.9 208.39 154.89 208.17 154.87 207.97 154.84 207.81 154.8 207.67 154.75 207.55 154.69 207.46 154.63 207.38 154.54 207.31 154.43 207.25 154.3 207.2 154.15 207.16 153.98 207.14 153.79 207.13 153.69 207.13 153.66 207.13 153.66 207.13 153.65 207.13 153.62 207.13 153.57 207.13 153.5 207.13 153.41 207.13 153.29 207.13 153.15 207.13 153 207.13 152.81 207.13 152.61 207.13 152.39 207.13 152.14 207.13 151.88 207.13 151.59 207.13 151.28 207.13 151.2 207.13 151.16 207.13 151.15 207.13 151.09 207.13 150.97 207.14 150.76 207.15 150.57 207.18 150.4 207.21 150.25 207.25 150.12 207.29 150.01 207.35 149.91 207.43 149.81 207.53 149.72 207.66 149.65 207.8 149.59 207.97 149.55 208.15 149.53 208.36 149.51 208.41 149.51 208.42 149.51 208.49 149.51 208.61 149.51 208.78 149.51 208.99 149.51 209.23 149.51 209.76 149.51 210.28 149.51 210.52 149.51 210.73 149.51 210.9 149.51 211.03 149.51 211.09 149.51 211.1 149.51 211.1 149.48 211.1 149.43 211.1 149.36 211.1 149.27 211.1 149.05 211.1 148.82 211.1 148.6 211.1 148.51 211.1 148.44 211.1 148.38 211.1 148.35 211.09 148.34 211.07 148.34"/><path class="cls-8" d="M220.19,149.59l0-.23,0-.19-.05-.16-.06-.15,0-.12-.09-.1-.07-.07-.08,0-.11-.05-.11,0-.15,0-.16,0-.18,0h-4.48v1.17h3.53l.17,0,.17,0,.14,0,.13.08.11.08.09.1.08.12.06.13,0,.07v.1l0,.11v.31l0,.18v.72h-3.71l-.18,0-.15,0-.13,0-.12,0-.11.05-.07,0-.08.08-.07.1-.06.13-.06.15,0,.18,0,.2,0,.23,0,.24v1.51l0,.25,0,.22,0,.18,0,.15.05.13.06.09.07.08.1.07.13.06.14,0,.16,0,.18,0,.21,0h4.71v-6l0-.26Zm-1.07,5.32h-3a1.16,1.16,0,0,1-.47-.11c-.14-.23-.14-.23-.27-.42a2,2,0,0,1-.07-.5,1.33,1.33,0,0,1,.22-.76,1.09,1.09,0,0,1,.35-.32h3.25Z"/><path class="cls-8" d="M228.83,148.35h-3.65l-.23,0-.21,0-.18,0-.16,0-.12.06-.1.06-.05,0,0,.05-.09.14-.07.17-.06.21-.05.24,0,.28,0,.32v.3h0v3.74h0v.2l0,.33,0,.29.05.25,0,.22.07.18.08.15.09.11.09.06.12.06.15.05.17,0,.2,0,.23,0h1.59l.07-.13h.52l-.08.13h1.65v-1.16h-2.71l-.22,0-.2,0-.16,0-.14-.05-.12-.06-.09-.06-.08-.09-.07-.11-.06-.13,0-.15,0-.17,0-.19v-.13h0v-2.49h0v-.58l0-.17,0-.15,0-.13.05-.11,0-.1.09-.1.1-.09.13-.07.14-.06.17,0,.18,0h3v-1.16h0Z"/><path class="cls-8" d="M226.7,156.08l-.9,1.44.13,0h.56a1,1,0,0,1,.25.65.85.85,0,0,1-.33.69,1.94,1.94,0,0,1-.47.28h-.7v.35l.6.05h.72a3.65,3.65,0,0,0,.83-.43,1.39,1.39,0,0,0,.57-1.16,1.93,1.93,0,0,0-.36-1.1l-.73-.17.34-.58h-.51Z"/><path class="cls-8" d="M239.51,149.57l0-.18,0-.17,0-.15,0-.14-.05-.11-.06-.11-.13-.13-.15-.08-.21-.07-.26-.05-.32,0h-3.36l-.33,0-.28,0-.23.07-.17.07-.06,0-.07.07-.06.08-.06.11,0,.12,0,.15,0,.15,0,.18,0,.2,0,.21v5l0,.19,0,.17,0,.15,0,.14.06.12.06.09.06.09.06.05.15.09.22.07.25.05.32,0h3.36l.33,0,.29-.05.22-.06.18-.07,0,0,.08-.07.05-.08.06-.11,0-.11.05-.15,0-.16,0-.18,0-.19v-.21l0-.23V150l0-.22Zm-1.08,4,0,.28,0,.24-.05.19-.06.16,0,.06,0,.08-.07.06-.08.07-.09,0-.09.05-.11,0-.12,0-.13,0h-2l-.22,0-.2-.06-.16-.08-.13-.1-.06-.06,0-.07,0-.08,0-.1,0-.11,0-.12,0-.13v-3.11l0-.27,0-.24,0-.2.06-.15.05-.07.06-.07.07-.08.07-.05.09-.05.1,0,.1,0,.12,0,.12,0,.28,0h1.72l.23,0,.2.06.16.07.12.11.06.06.05.07,0,.08,0,.09,0,.11,0,.12,0,.13v.3l0,.17Z"/><path class="cls-8" d="M235.8,146.69a.83.83,0,0,1,.29.09l.62.34a1.89,1.89,0,0,0,.52.09.87.87,0,0,0,1-1h-.47l-.08.35a.45.45,0,0,1-.32.17,1.87,1.87,0,0,1-.63-.26,4.41,4.41,0,0,0-.6-.26h-.85a1.75,1.75,0,0,0-.34,1h.48C235.49,146.86,235.63,146.69,235.8,146.69Z"/><path class="cls-8" d="M249,148.44a7.42,7.42,0,0,0-1.15-.09h-2.53a4.34,4.34,0,0,0-1.15.16c-.25.33-.25.33-.46.63a6.77,6.77,0,0,0-.11,1.2v3.75a9.42,9.42,0,0,0,.12,1.5l.42.4a7.8,7.8,0,0,0,1.18.09h4v-1.17H246a1.21,1.21,0,0,1-1.1-.43,1.8,1.8,0,0,1-.18-.62V152.8h4.86v-2.46a9.16,9.16,0,0,0-.12-1.48Zm-.49,3.2h-3.8v-.9l0-.14v-.22l0-.1v-.07l0,0v-.05l.06-.12.06-.09.08-.1.09-.08.11-.06.12-.06.12-.05.14,0,.15,0h1.91l.09,0,.09,0,.07,0,.08,0,.06,0,.07.05.06.06,0,.06.09.14,0,.07,0,.1,0,.08,0,.09,0,.11v.1l0,.12Z"/><polygon class="cls-8" points="259.21 153.7 259.19 153.35 259.16 153.04 259.12 152.78 259.06 152.56 259.05 152.51 259.02 152.45 258.95 152.3 258.88 152.18 258.79 152.06 258.69 151.96 258.58 151.88 258.47 151.81 258.34 151.75 258.2 151.71 258.05 151.69 257.89 151.67 257.85 151.67 257.83 151.67 257.83 151.67 257.8 151.67 257.74 151.67 257.65 151.67 257.54 151.67 257.4 151.67 257.08 151.67 256.71 151.67 255.94 151.67 255.6 151.67 255.45 151.67 255.32 151.67 255.21 151.67 255.13 151.67 255.08 151.67 255.06 151.67 254.89 151.66 254.73 151.63 254.59 151.59 254.47 151.52 254.37 151.43 254.28 151.32 254.21 151.2 254.15 151.05 254.12 150.89 254.1 150.7 254.09 150.6 254.09 150.56 254.09 150.54 254.1 150.46 254.12 150.31 254.16 150.16 254.22 150.03 254.3 149.9 254.4 149.79 254.51 149.69 254.63 149.61 254.76 149.56 254.91 149.53 255.06 149.51 255.09 149.51 255.16 149.51 255.27 149.51 255.41 149.51 255.59 149.51 255.79 149.51 256.01 149.51 256.25 149.51 257.29 149.51 257.8 149.51 258.03 149.51 258.24 149.51 258.42 149.51 258.58 149.51 258.7 149.51 258.78 149.51 258.82 149.51 258.82 149.51 258.82 149.47 258.82 149.37 258.82 149.24 258.82 148.93 258.82 148.62 258.82 148.49 258.82 148.4 258.82 148.35 258.82 148.34 258.78 148.34 258.69 148.34 258.56 148.34 258.39 148.34 258.19 148.34 257.96 148.34 257.71 148.34 257.17 148.34 256.6 148.34 256.04 148.34 255.78 148.34 255.54 148.34 255.32 148.34 255.13 148.34 254.98 148.34 254.86 148.34 254.78 148.34 254.76 148.34 254.38 148.35 254.06 148.38 253.79 148.43 253.58 148.5 253.43 148.58 253.32 148.69 253.23 148.86 253.16 149.07 253.1 149.34 253.07 149.65 253.05 149.83 253.05 149.88 253.05 149.89 253.05 149.9 253.05 149.91 253.04 149.96 253.04 150.03 253.04 150.12 253.04 150.22 253.03 150.34 253.03 150.48 253.03 150.64 253.03 150.81 253.03 151.01 253.03 151.22 253.05 151.52 253.11 151.79 253.2 152.03 253.33 152.24 253.5 152.43 253.6 152.5 253.69 152.57 253.87 152.67 254.07 152.75 254.28 152.81 254.51 152.84 254.63 152.84 254.66 152.84 254.67 152.84 254.7 152.84 254.75 152.84 254.84 152.84 254.95 152.84 255.07 152.84 255.38 152.84 255.73 152.84 256.45 152.84 256.77 152.84 256.91 152.84 257.04 152.84 257.14 152.84 257.21 152.84 257.26 152.84 257.28 152.84 257.42 152.85 257.56 152.88 257.69 152.92 257.82 152.97 257.94 153.05 258 153.09 258.07 153.15 258.19 153.28 258.27 153.42 258.33 153.58 258.37 153.74 258.37 153.91 258.35 154.06 258.31 154.2 258.25 154.34 258.17 154.47 258.07 154.59 257.95 154.7 257.81 154.79 257.67 154.85 257.51 154.89 257.34 154.91 257.29 154.91 257.26 154.91 257.21 154.91 257.11 154.91 256.96 154.91 256.79 154.91 256.58 154.91 256.35 154.91 255.83 154.91 255.28 154.91 254.72 154.91 254.21 154.91 253.98 154.91 253.77 154.91 253.6 154.91 253.45 154.91 253.35 154.91 253.29 154.91 253.28 154.91 253.28 154.93 253.28 154.99 253.28 155.09 253.28 155.23 253.28 155.39 253.28 155.71 253.28 155.86 253.28 155.97 253.28 156.05 253.28 156.08 253.31 156.08 253.39 156.08 253.51 156.08 253.67 156.08 253.87 156.08 254.09 156.08 254.34 156.08 254.61 156.08 255.19 156.08 255.78 156.08 256.34 156.08 256.6 156.08 256.83 156.08 257.04 156.08 257.22 156.08 257.35 156.08 257.44 156.08 257.49 156.08 257.49 156.08 257.51 156.08 257.56 156.08 257.75 156.08 258.08 156.06 258.36 156.01 258.59 155.95 258.76 155.88 258.82 155.83 258.89 155.76 258.95 155.68 259.01 155.57 259.06 155.45 259.1 155.31 259.14 155.15 259.17 154.97 259.19 154.78 259.21 154.57 259.22 154.34 259.22 154.09 259.21 153.7"/><path class="cls-8" d="M5.87,148.44a7.69,7.69,0,0,0-1.17-.09H2.19a4.44,4.44,0,0,0-1.16.16l-.47.63a7.43,7.43,0,0,0-.1,1.2v3.75a10.26,10.26,0,0,0,.11,1.5L1,156a7.8,7.8,0,0,0,1.18.09h4v-1.17H2.85a1.19,1.19,0,0,1-1.1-.43,1.69,1.69,0,0,1-.17-.62V152.8H6.43v-2.46a9.16,9.16,0,0,0-.12-1.48Zm-.5,3.2H1.58v-.76l0-.28v-.22l0-.1,0-.07v-.08l.06-.12.07-.09.09-.1.09-.08.11-.06.1-.06.13-.05.14,0,.16,0H4.36l.19,0,.08,0,.08,0,.08,0,.07,0,.08,0,0,.05.12.12,0,.07,0,.07,0,.07,0,.1,0,.08,0,.09,0,.11v1.18Z"/><path class="cls-8" d="M20.69,148.44a7.59,7.59,0,0,0-1.16-.09H17a4.4,4.4,0,0,0-1.16.16l-.47.63a6.77,6.77,0,0,0-.11,1.2v3.75a9.42,9.42,0,0,0,.12,1.5l.44.4a7.8,7.8,0,0,0,1.18.09h4v-1.17h-3.3a1.19,1.19,0,0,1-1.1-.43,1.8,1.8,0,0,1-.18-.62V152.8h4.86v-2.46a9.16,9.16,0,0,0-.12-1.48Zm-.49,3.2H16.4v-.4l0-.19v-.77l0-.07v-.08l.06-.12.07-.09.08-.1.1-.08.1-.06.11-.06.13-.05.14,0,.15,0h1.73l.18,0,.09,0,.08,0,.08,0,.07,0,.07,0,.06.05.12.12,0,.07,0,.07.05.07,0,.1,0,.08,0,.09,0,.11v1.18Z"/><path class="cls-8" d="M54.66,149.79v-.22l0-.18,0-.17,0-.15,0-.14-.06-.11-.06-.11-.06-.07-.07-.06-.15-.08-.2-.07-.27-.05-.31,0H50l-.34,0-.27,0-.24.07-.16.07-.07,0-.06.07-.07.08,0,.11-.06.12,0,.15,0,.15,0,.18,0,.2v5l0,.21,0,.19,0,.17,0,.15,0,.14,0,.12.06.09.07.09.06.05.16.09.21.07.26.05.32,0h3.36l.33,0,.28-.05.22-.06.18-.07.06,0,.07-.07.06-.08.06-.11,0-.11,0-.15,0-.16,0-.18,0-.19,0-.21V150Zm-1.09,3.46v.6l0,.24,0,.19-.07.16,0,.06-.06.08-.06.06-.08.07-.09,0-.09.05-.11,0-.11,0-.13,0h-2l-.23,0-.19-.06-.17-.08-.13-.1,0-.06,0-.07,0-.08,0-.1,0-.11,0-.12,0-.13,0-.14,0-.16v-2.81l0-.27,0-.24,0-.2.06-.15,0-.07.06-.07.06-.08.08-.05.09-.05.09,0,.11,0,.11,0,.13,0h2l.24,0,.2.06.15.07.13.11,0,.06,0,.07.05.08,0,.09,0,.11,0,.12v.13l0,.15v2.64Z"/><path class="cls-8" d="M52.89,146.55l0-.51-2.41,1.1,0,.52Z"/><path class="cls-8" d="M88.34,149.59l0-.23,0-.19,0-.16-.06-.15-.07-.12-.07-.1-.07-.07-.08,0-.11-.05-.13,0-.14,0-.15,0-.18,0H82.67v1.17h3.54l.17,0,.17,0,.14,0,.13.08.11.08.09.1.07.12.06.13,0,.07,0,.1v.11l0,.15v.34l0,.21v.51H83.55l-.17,0-.15,0-.15,0-.11,0-.1.05-.08,0-.07.08-.07.1-.07.13,0,.15,0,.18,0,.2,0,.23v1.48l0,.27,0,.25,0,.22,0,.18,0,.15,0,.13.06.09.08.08.1.07.12.06.14,0,.16,0,.19,0,.21,0h4.71v-6l0-.26Zm-1.08,5.32h-3a1.13,1.13,0,0,1-.47-.11,3.82,3.82,0,0,0-.28-.42,2.31,2.31,0,0,1-.06-.5,1.4,1.4,0,0,1,.21-.76,1.13,1.13,0,0,1,.34-.32h3.26Z"/><path class="cls-8" d="M104.23,148.44a7.69,7.69,0,0,0-1.17-.09h-2.52a4.24,4.24,0,0,0-1.14.16c-.26.33-.26.33-.47.63a6.77,6.77,0,0,0-.11,1.2v3.75a9.42,9.42,0,0,0,.12,1.5l.43.4a7.62,7.62,0,0,0,1.17.09h4v-1.17h-3.29a1.17,1.17,0,0,1-1.09-.43,1.8,1.8,0,0,1-.18-.62V152.8h4.86v-2.46a9.16,9.16,0,0,0-.12-1.48Zm-.5,3.2H99.94v-1l0-.12v-.2l0-.07v0l0,0v0l.06-.12.07-.09.08-.1.08-.08.11-.06.12-.06.13-.05.14,0,.14,0h1.73l.19,0,.08,0,.08,0,.09,0,.07,0,.07,0,.06.05.06.06,0,.06.06.07,0,.07,0,.07,0,.1,0,.08,0,.09v.21l0,.24Z"/></g></g></svg>